<?xml version="1.0" encoding="UTF-8"?>
<svg id="Layer_2" data-name="Layer 2" xmlns="http://www.w3.org/2000/svg" viewBox="0 0 184.96 184.96">
  <g id="Layer_1-2" data-name="Layer 1">
    <polygon points="92.48 0 98 57.59 121.06 4.53 108.52 61.01 146.84 17.67 117.46 67.5 167.29 38.12 123.95 76.45 180.43 63.9 127.37 86.96 184.96 92.48 127.37 98.01 180.43 121.06 123.95 108.52 167.29 146.84 117.46 117.46 146.84 167.3 108.52 123.96 121.06 180.43 98 127.37 92.48 184.96 86.95 127.37 63.9 180.43 76.44 123.96 38.12 167.3 67.5 117.46 17.66 146.84 61.01 108.52 4.53 121.06 57.59 98.01 0 92.48 57.59 86.96 4.53 63.9 61.01 76.45 17.66 38.12 67.5 67.5 38.12 17.67 76.44 61.01 63.9 4.53 86.95 57.59 92.48 0"/>
  </g>
</svg>