<?xml version="1.0" encoding="UTF-8"?>
<svg id="Layer_2" data-name="Layer 2" xmlns="http://www.w3.org/2000/svg" viewBox="0 0 177.96 184.96">
  <g id="Layer_1-2" data-name="Layer 1">
    <path d="M148.16,92.48c50.73,0,29.74-64.61-11.3-34.79,41.04-29.82-13.92-69.75-29.59-21.5,15.68-48.25-52.26-48.25-36.58,0C55.01-12.06.05,27.87,41.1,57.69.06,27.87-20.94,92.48,29.8,92.48c-50.73,0-29.74,64.61,11.3,34.79-41.04,29.82,13.92,69.75,29.59,21.5-15.68,48.25,52.26,48.25,36.58,0,15.68,48.25,70.64,8.32,29.59-21.5,41.04,29.82,62.04-34.79,11.3-34.79ZM115.15,92.48c0,14.46-11.72,26.18-26.18,26.18h0c-14.46,0-26.18-11.72-26.18-26.18h0c0-14.46,11.72-26.18,26.18-26.18h0c14.46,0,26.18,11.72,26.18,26.18h0Z"/>
  </g>
</svg>